<svg xmlns="http://www.w3.org/2000/svg" width="416" height="278" viewBox="0 0 416 278" fill="none">
  <path d="M31.9999 0.000756464L384 6.30388e-05C401.673 2.82235e-05 416 14.3269 416 32.0001L416 162.792C416 168.192 414.634 173.503 412.028 178.232L410.162 181.621C404.664 191.601 404.888 203.751 410.749 213.522L411.442 214.677C414.424 219.649 416 225.339 416 231.137L416 246C416 263.673 401.673 278 384 278L32 278C14.3269 278 4.94914e-05 263.673 1.97476e-05 246L-1.01193e-05 231.137C-4.0383e-05 225.339 1.57549 219.649 4.55816 214.677L5.25124 213.521C11.1121 203.751 11.3356 191.6 5.83807 181.621L3.97134 178.232C1.36614 173.503 -3.78811e-05 168.191 -3.76447e-05 162.792L-3.19186e-05 32.0008C-3.11449e-05 14.3277 14.3268 0.00079128 31.9999 0.000756464Z" fill="#131313"/>
</svg>